<svg viewBox="0 0 520 120" xmlns="http://www.w3.org/2000/svg">
  <!-- Power button icon - Green (#22b45f) -->
  <path d="M38 15c4 0 7 3 7 7v20c0 4-3 7-7 7s-7-3-7-7V22c0-4 3-7 7-7z" fill="#22b45f"/>
  <path d="M62 40c0-15-13-28-28-28S6 25 6 40s13 28 28 28 28-13 28-28" stroke="#22b45f" stroke-width="5.5" fill="none" stroke-linecap="round"/>
  <!-- Leaf accent - Green -->
  <path d="M54 10c3-2 6-3 10-3-2.5 3-5.5 5.5-10 7V10z" fill="#22b45f"/>
  <path d="M58 8c2-1 4-1.5 6-1.5-1.5 1.5-3.5 3-6 4V8z" fill="#22b45f"/>
  <!-- GreenTomato text - Black -->
  <text x="105" y="75" font-family="Arial, sans-serif" font-size="52" font-weight="500" fill="#000">GreenTomato</text>
  <text x="480" y="62" font-family="Arial, sans-serif" font-size="28" font-weight="500" fill="#000">®</text>
</svg>