<svg viewBox="0 0 400 80" xmlns="http://www.w3.org/2000/svg">
  <g fill="currentColor">
    <!-- Power button icon -->
    <path d="M22 8c2.5 0 4.5 2 4.5 4.5v14c0 2.5-2 4.5-4.5 4.5S17.5 29 17.5 26.5v-14C17.5 10 19.5 8 22 8z"/>
    <path d="M40 22c0-11-9-20-20-20S0 11 0 22s9 20 20 20 20-9 20-20" stroke="currentColor" stroke-width="4" fill="none"/>
    <!-- Leaf accent -->
    <path d="M32 4c2-1 4-1.5 6-1.5-1.5 2-3.5 3.5-6 4.5V4z"/>
  </g>
  <!-- GreenTomato text -->
  <text x="60" y="52" font-family="Arial, sans-serif" font-size="36" font-weight="500" fill="currentColor">GreenTomato</text>
  <text x="295" y="44" font-family="Arial, sans-serif" font-size="20" font-weight="500" fill="currentColor">®</text>
</svg>
